<?xml version="1.0" standalone="no"?>
<!DOCTYPE svg PUBLIC "-//W3C//DTD SVG 20010904//EN"
 "http://www.w3.org/TR/2001/REC-SVG-20010904/DTD/svg10.dtd">
<svg version="1.0" xmlns="http://www.w3.org/2000/svg"
 width="900.000000pt" height="900.000000pt" viewBox="0 0 900.000000 900.000000"
 preserveAspectRatio="xMidYMid meet">
<metadata>
Created by potrace 1.11, written by Peter Selinger 2001-2013
</metadata>
<g transform="translate(0.000000,900.000000) scale(0.100000,-0.100000)"
fill="#000000" stroke="none">
<path d="M0 4500 l0 -4500 4500 0 4500 0 0 4500 0 4500 -4500 0 -4500 0 0
-4500z m4130 3890 l0 -290 -575 0 -575 0 0 -1705 0 -1705 -327 2 -328 3 -2
1590 c-2 875 -3 1641 -3 1703 l0 112 -575 0 -575 0 0 290 0 290 1480 0 1480 0
0 -290z m2546 270 c304 -52 555 -180 749 -382 171 -177 273 -376 327 -636 30
-146 30 -374 0 -513 -55 -253 -156 -449 -320 -621 -119 -124 -284 -238 -435
-299 -31 -12 -56 -26 -55 -29 2 -4 229 -317 506 -697 l502 -691 0 -51 0 -51
-334 0 -335 0 -24 33 c-13 17 -237 330 -496 695 l-473 662 -439 0 -439 0 0
-695 0 -695 -335 0 -335 0 0 1995 0 1995 913 -1 c849 0 920 -2 1023 -19z
m-3331 -4394 c599 -117 930 -514 928 -1111 -1 -272 -92 -484 -280 -654 -37
-34 -91 -73 -120 -89 -29 -15 -53 -29 -53 -32 0 -3 38 -22 84 -43 343 -157
526 -436 543 -828 10 -226 -24 -409 -107 -587 -146 -312 -413 -505 -820 -594
l-105 -23 -1007 -3 -1008 -3 0 1996 0 1996 928 -4 c837 -3 936 -5 1017 -21z
m2745 -1671 l0 -1695 858 -2 857 -3 0 -295 0 -295 -1193 -3 -1192 -2 0 1995 0
1995 335 0 335 0 0 -1695z"/>
<path d="M5400 7371 l0 -741 514 0 c549 0 622 5 740 47 114 41 175 81 266 172
68 68 94 104 128 171 130 265 102 587 -71 816 -83 109 -221 199 -377 245 -73
22 -89 23 -637 27 l-563 3 0 -740z"/>
<path d="M2065 3708 c-3 -7 -4 -260 -3 -563 l3 -550 530 0 c513 0 533 1 617
22 276 70 412 245 412 528 -1 243 -96 408 -287 499 -143 68 -154 69 -740 73
-429 4 -528 2 -532 -9z"/>
<path d="M2060 1465 l0 -586 623 3 c613 4 623 4 697 27 209 63 337 189 396
386 27 91 25 269 -3 360 -58 184 -185 309 -373 366 -74 23 -83 23 -707 27
l-633 3 0 -586z"/>
</g>
</svg>
